<svg width="172" height="48" viewBox="0 0 172 48" fill="none" xmlns="http://www.w3.org/2000/svg">
<path d="M4 36V10.8H8.824L19.552 28.584H16.996L27.544 10.8H32.332L32.404 36H26.932L26.896 19.188H27.904L19.48 33.336H16.852L8.248 19.188H9.472V36H4Z" fill="#060931"/>
<path d="M38.4868 36V16.632H44.1028V36H38.4868ZM41.2948 13.932C40.2628 13.932 39.4228 13.632 38.7748 13.032C38.1268 12.432 37.8028 11.688 37.8028 10.8C37.8028 9.91197 38.1268 9.16797 38.7748 8.56797C39.4228 7.96797 40.2628 7.66797 41.2948 7.66797C42.3268 7.66797 43.1668 7.95597 43.8148 8.53197C44.4628 9.08397 44.7868 9.80397 44.7868 10.692C44.7868 11.628 44.4628 12.408 43.8148 13.032C43.1908 13.632 42.3508 13.932 41.2948 13.932Z" fill="#060931"/>
<path d="M61.5869 16.344C63.1229 16.344 64.4909 16.656 65.6909 17.28C66.9149 17.88 67.8749 18.816 68.5709 20.088C69.2669 21.336 69.6149 22.944 69.6149 24.912V36H63.9989V25.776C63.9989 24.216 63.6509 23.064 62.9549 22.32C62.2829 21.576 61.3229 21.204 60.0749 21.204C59.1869 21.204 58.3829 21.396 57.6629 21.78C56.9669 22.14 56.4149 22.704 56.0069 23.472C55.6229 24.24 55.4309 25.224 55.4309 26.424V36H49.8149V16.632H55.1789V21.996L54.1709 20.376C54.8669 19.08 55.8629 18.084 57.1589 17.388C58.4549 16.692 59.9309 16.344 61.5869 16.344Z" fill="#060931"/>
<path d="M75.2056 36V16.632H80.8216V36H75.2056ZM78.0136 13.932C76.9816 13.932 76.1416 13.632 75.4936 13.032C74.8456 12.432 74.5216 11.688 74.5216 10.8C74.5216 9.91197 74.8456 9.16797 75.4936 8.56797C76.1416 7.96797 76.9816 7.66797 78.0136 7.66797C79.0456 7.66797 79.8856 7.95597 80.5336 8.53197C81.1816 9.08397 81.5056 9.80397 81.5056 10.692C81.5056 11.628 81.1816 12.408 80.5336 13.032C79.9096 13.632 79.0696 13.932 78.0136 13.932Z" fill="#060931"/>
<path d="M98.3057 16.344C99.8417 16.344 101.21 16.656 102.41 17.28C103.634 17.88 104.594 18.816 105.29 20.088C105.986 21.336 106.334 22.944 106.334 24.912V36H100.718V25.776C100.718 24.216 100.37 23.064 99.6737 22.32C99.0017 21.576 98.0417 21.204 96.7937 21.204C95.9057 21.204 95.1017 21.396 94.3817 21.78C93.6857 22.14 93.1337 22.704 92.7257 23.472C92.3417 24.24 92.1497 25.224 92.1497 26.424V36H86.5337V16.632H91.8977V21.996L90.8897 20.376C91.5857 19.08 92.5817 18.084 93.8777 17.388C95.1737 16.692 96.6497 16.344 98.3057 16.344Z" fill="#060931"/>
<path d="M121.173 43.272C119.349 43.272 117.585 43.044 115.881 42.588C114.201 42.156 112.797 41.496 111.669 40.608L113.901 36.576C114.717 37.248 115.749 37.776 116.997 38.16C118.269 38.568 119.517 38.772 120.741 38.772C122.733 38.772 124.173 38.328 125.061 37.44C125.973 36.552 126.429 35.232 126.429 33.48V30.564L126.789 25.704L126.717 20.808V16.632H132.045V32.76C132.045 36.36 131.109 39.012 129.237 40.716C127.365 42.42 124.677 43.272 121.173 43.272ZM120.309 35.064C118.509 35.064 116.877 34.68 115.413 33.912C113.973 33.12 112.809 32.028 111.921 30.636C111.057 29.22 110.625 27.576 110.625 25.704C110.625 23.808 111.057 22.164 111.921 20.772C112.809 19.356 113.973 18.264 115.413 17.496C116.877 16.728 118.509 16.344 120.309 16.344C121.941 16.344 123.381 16.68 124.629 17.352C125.877 18 126.849 19.02 127.545 20.412C128.241 21.78 128.589 23.544 128.589 25.704C128.589 27.84 128.241 29.604 127.545 30.996C126.849 32.364 125.877 33.384 124.629 34.056C123.381 34.728 121.941 35.064 120.309 35.064ZM121.425 30.456C122.409 30.456 123.285 30.264 124.053 29.88C124.821 29.472 125.421 28.908 125.853 28.188C126.285 27.468 126.501 26.64 126.501 25.704C126.501 24.744 126.285 23.916 125.853 23.22C125.421 22.5 124.821 21.948 124.053 21.564C123.285 21.156 122.409 20.952 121.425 20.952C120.441 20.952 119.565 21.156 118.797 21.564C118.029 21.948 117.417 22.5 116.961 23.22C116.529 23.916 116.313 24.744 116.313 25.704C116.313 26.64 116.529 27.468 116.961 28.188C117.417 28.908 118.029 29.472 118.797 29.88C119.565 30.264 120.441 30.456 121.425 30.456Z" fill="#060931"/>
<path d="M137.02 22.3V19.024L142.744 14.128C143.296 13.672 143.644 13.3 143.788 13.012C143.956 12.7 144.04 12.424 144.04 12.184C144.04 11.896 143.92 11.656 143.68 11.464C143.464 11.272 143.104 11.176 142.6 11.176C142.048 11.176 141.568 11.296 141.16 11.536C140.752 11.776 140.428 12.112 140.188 12.544L136.012 10.564C136.54 9.532 137.392 8.68 138.568 8.008C139.744 7.336 141.256 7 143.104 7C145.096 7 146.692 7.432 147.892 8.296C149.116 9.136 149.728 10.288 149.728 11.752C149.728 12.472 149.536 13.192 149.152 13.912C148.792 14.608 148.024 15.472 146.848 16.504L142.744 20.032L141.844 18.196H150.196V22.3H137.02Z" fill="#1BE046"/>
<path d="M151.692 19.852V16.468L157.992 7.36H164.004L157.668 16.468L155.184 15.748H166.848V19.852H151.692ZM159.576 22.3V19.852L160.224 15.748V13.768H165.048V22.3H159.576Z" fill="#1BE046"/>
</svg>
