<svg width="200" height="40" viewBox="0 0 200 40" fill="none" xmlns="http://www.w3.org/2000/svg">
<path d="M12.2435 16.81L20.0065 9.045L27.7695 16.81L32.2899 12.29L20.0065 0L7.72303 12.285L12.2435 16.81Z" fill="#1E1E1E"/>
<path d="M4.51301 15.5L0 20L4.51301 24.5125L9.02601 20L4.51301 15.5Z" fill="#1E1E1E"/>
<path d="M12.2435 23.19L20.0065 30.955L27.7695 23.19L32.2899 27.71L20.0065 40L7.72303 27.715H7.70306L12.2435 23.19Z" fill="#1E1E1E"/>
<path d="M35.4725 15.48L30.9595 20L35.4725 24.5L39.9855 20L35.4725 15.48Z" fill="#1E1E1E"/>
<path d="M24.5894 20L20.0065 15.4175L16.2323 19.195L15.4236 20L20.0065 24.5825L24.5894 20Z" fill="#1E1E1E"/>
<path d="M47.062 9.695H56.8743C57.8679 9.6411 58.8623 9.78527 59.7998 10.1191C60.7373 10.453 61.5993 10.97 62.3359 11.64C62.8096 12.1138 63.1816 12.6795 63.4292 13.3025C63.6749 13.9217 63.7945 14.5838 63.7811 15.25C63.7965 15.7958 63.7189 16.3403 63.5515 16.86C63.4139 17.3015 63.2165 17.7221 62.9649 18.11C62.7224 18.4794 62.4262 18.8105 62.0863 19.0925C61.7576 19.3746 61.3994 19.6202 61.0179 19.825C62.1282 20.2105 63.1222 20.873 63.9059 21.75C64.6622 22.6791 65.0434 23.8583 64.9743 25.055C65.0054 25.9514 64.8187 26.8419 64.4301 27.65C64.0465 28.3777 63.4934 29.002 62.8176 29.47C62.0538 29.9794 61.205 30.3478 60.3115 30.5575C59.2471 30.8006 58.1582 30.9198 57.0665 30.9125H47.062V9.695ZM55.8909 18.2725C56.746 18.3177 57.5981 18.1376 58.362 17.75C58.6572 17.577 58.8983 17.3251 59.0585 17.0225C59.2201 16.7154 59.2902 16.3683 59.2606 16.0225C59.2788 15.7075 59.2151 15.3931 59.0759 15.11C58.9356 14.8286 58.726 14.5877 58.4669 14.41C57.8045 13.947 57.013 13.7055 56.2054 13.72H51.6025V18.1975L55.8909 18.2725ZM57.1389 26.8325C57.9836 26.8835 58.8255 26.6946 59.5677 26.2875C59.8565 26.1007 60.0903 25.8399 60.2448 25.5323C60.3992 25.2246 60.4688 24.8811 60.4463 24.5375C60.4496 24.2089 60.3752 23.8843 60.2291 23.59C60.084 23.2951 59.872 23.0383 59.6101 22.84C58.8284 22.3246 57.9072 22.0628 56.9717 22.09H51.6025V26.7575L57.1389 26.8325Z" fill="#1E1E1E"/>
<path d="M70.8951 9.695H75.5803V30.9125H70.8951V9.695Z" fill="#1E1E1E"/>
<path d="M82.6319 9.695H86.9427L96.8823 22.7725V9.695H101.498V30.9125H97.5039L87.2298 17.4375V30.9125H82.6319V9.695Z" fill="#1E1E1E"/>
<path d="M115.611 9.5475H119.922L129.003 30.9125H124.128L122.181 26.1625H113.229L111.285 30.9125H106.542L115.611 9.5475ZM120.528 22.1025L117.703 15.2175L114.879 22.1025H120.528Z" fill="#1E1E1E"/>
<path d="M134.045 9.695H138.356L148.295 22.7725V9.695H152.898V30.9125H148.924L138.65 17.4375V30.9125H134.045V9.695Z" fill="#1E1E1E"/>
<path d="M169.68 31.2675C168.194 31.2845 166.721 30.9996 165.349 30.43C164.057 29.8942 162.886 29.1045 161.904 28.1075C159.93 26.0468 158.822 23.3055 158.809 20.45C158.804 19.0129 159.088 17.5895 159.645 16.265C160.173 14.9671 160.939 13.7799 161.904 12.765C162.897 11.7481 164.086 10.9435 165.399 10.4C166.819 9.81725 168.342 9.52567 169.877 9.5425C170.79 9.53559 171.701 9.61933 172.597 9.7925C173.358 9.93026 174.101 10.1473 174.817 10.44C175.468 10.7179 176.085 11.0694 176.656 11.4875C177.22 11.8843 177.751 12.3248 178.246 12.805L175.338 16.0275C174.581 15.3278 173.729 14.7387 172.807 14.2775C171.905 13.8497 170.917 13.635 169.919 13.65C169.07 13.6387 168.228 13.8092 167.45 14.15C166.702 14.4802 166.032 14.9649 165.484 15.5725C164.937 16.1881 164.505 16.8968 164.208 17.665C163.912 18.483 163.763 19.3473 163.769 20.2175C163.759 21.0945 163.908 21.966 164.208 22.79C164.501 23.554 164.923 24.2618 165.456 24.8825C165.996 25.4899 166.659 25.9756 167.401 26.3075C168.187 26.6723 169.045 26.8576 169.912 26.85C170.969 26.8776 172.018 26.6477 172.967 26.18C173.884 25.6923 174.729 25.0798 175.478 24.36L178.448 27.36C177.926 27.933 177.36 28.4646 176.756 28.95C176.158 29.4151 175.512 29.8149 174.829 30.1425C174.102 30.4853 173.336 30.7372 172.548 30.8925C171.608 31.1148 170.647 31.2405 169.682 31.2675H169.68Z" fill="#1E1E1E"/>
<path d="M183.87 9.695H199.845V13.88H188.468V18.065H198.472V22.25H188.468V26.705H200V30.89H183.87V9.695Z" fill="#1E1E1E"/>
</svg>
