<svg width="218" height="40" viewBox="0 0 218 40" fill="none" xmlns="http://www.w3.org/2000/svg">
<g clip-path="url(#clip0_702_5456)">
<path fill-rule="evenodd" clip-rule="evenodd" d="M0 11.2339C0 6.82077 3.57551 3.24326 7.98614 3.24326H39.9307C39.9307 7.65634 36.3552 11.2339 31.9446 11.2339H0ZM0 40H31.9446C36.3552 40 39.9307 36.4225 39.9307 32.0094H7.98614C3.57551 32.0094 0 35.5869 0 40ZM0 25.617C0 21.2038 3.55085 17.6263 7.93107 17.6263H19.8276C19.8276 22.0395 16.2768 25.617 11.8965 25.617H0Z" fill="url(#paint0_linear_702_5456)"/>
<path d="M213.705 36.7568C212.428 36.7568 211.379 36.3537 210.557 35.5478C209.763 34.7108 209.366 33.6879 209.366 32.4789C209.366 31.239 209.763 30.2006 210.557 29.3636C211.379 28.5266 212.428 28.1081 213.705 28.1081C214.952 28.1081 215.973 28.5266 216.766 29.3636C217.589 30.2006 218 31.239 218 32.4789C218 33.6879 217.589 34.7108 216.766 35.5478C215.973 36.3537 214.952 36.7568 213.705 36.7568Z" fill="#6B5CEA"/>
<path d="M85.6435 22.2113C85.6435 22.9975 85.5946 23.8165 85.4968 24.6683H66.5849C66.7152 26.3718 67.2528 27.6823 68.1975 28.5994C69.1749 29.484 70.364 29.9263 71.765 29.9263C73.85 29.9263 75.2997 29.0417 76.1142 27.2727H85.0081C84.5521 29.0745 83.7213 30.6961 82.5159 32.1376C81.343 33.579 79.8607 34.7093 78.0689 35.5282C76.277 36.3472 74.2735 36.7567 72.0582 36.7567C69.3867 36.7567 67.0085 36.1834 64.9234 35.0369C62.8384 33.8903 61.2094 32.2522 60.0366 30.1228C58.8638 27.9934 58.2773 25.5037 58.2773 22.6535C58.2773 19.8034 58.8475 17.3137 59.9877 15.1843C61.1606 13.0549 62.7895 11.4169 64.8745 10.2703C66.9596 9.12365 69.3541 8.55035 72.0582 8.55035C74.697 8.55035 77.0427 9.10727 79.0952 10.2211C81.1476 11.3349 82.744 12.9238 83.8841 14.9877C85.057 17.0516 85.6435 19.4594 85.6435 22.2113ZM77.0915 20C77.0915 18.5586 76.6028 17.412 75.6255 16.5602C74.6482 15.7084 73.4264 15.2826 71.9604 15.2826C70.5595 15.2826 69.3704 15.692 68.393 16.511C67.4482 17.33 66.8618 18.4931 66.6338 20H77.0915Z" fill="#1E1E1E"/>
<path d="M126.311 8.64865C129.7 8.64865 132.387 9.68059 134.375 11.7444C136.394 13.8083 137.405 16.6748 137.405 20.344V36.3637H129.097V21.4742C129.097 19.7052 128.625 18.3456 127.68 17.3956C126.768 16.4128 125.498 15.9214 123.868 15.9214C122.239 15.9214 120.952 16.4128 120.008 17.3956C119.096 18.3456 118.639 19.7052 118.639 21.4742V36.3637H110.332V21.4742C110.332 19.7052 109.86 18.3456 108.915 17.3956C108.003 16.4128 106.732 15.9214 105.103 15.9214C103.474 15.9214 102.187 16.4128 101.242 17.3956C100.33 18.3456 99.874 19.7052 99.874 21.4742V36.3637H91.5176V8.94349H99.874V12.3832C100.721 11.2367 101.829 10.3358 103.197 9.68059C104.565 8.99263 106.113 8.64865 107.84 8.64865C109.892 8.64865 111.716 9.09091 113.312 9.97543C114.942 10.86 116.212 12.1212 117.124 13.7592C118.069 12.2522 119.356 11.0238 120.985 10.0737C122.614 9.12367 124.389 8.64865 126.311 8.64865Z" fill="#1E1E1E"/>
<path d="M143.054 22.6535C143.054 19.8034 143.625 17.3137 144.764 15.1843C145.937 13.0549 147.55 11.4169 149.602 10.2703C151.687 9.12365 154.066 8.55035 156.737 8.55035C160.158 8.55035 163.008 9.45125 165.289 11.2531C167.602 13.0549 169.117 15.5937 169.834 18.8697H160.939C160.19 16.7732 158.741 15.7249 156.59 15.7249C155.059 15.7249 153.837 16.3309 152.925 17.543C152.013 18.7224 151.557 20.4258 151.557 22.6535C151.557 24.8812 152.013 26.6012 152.925 27.8133C153.837 28.9926 155.059 29.5823 156.59 29.5823C158.741 29.5823 160.19 28.5339 160.939 26.4373H169.834C169.117 29.6478 167.602 32.1704 165.289 34.0049C162.976 35.8394 160.126 36.7567 156.737 36.7567C154.066 36.7567 151.687 36.1834 149.602 35.0369C147.55 33.8903 145.937 32.2522 144.764 30.1228C143.625 27.9934 143.054 25.5037 143.054 22.6535Z" fill="#1E1E1E"/>
<path d="M174.107 22.6044C174.107 19.787 174.629 17.3137 175.671 15.1843C176.746 13.0549 178.197 11.4169 180.02 10.2703C181.845 9.12366 183.882 8.55037 186.129 8.55037C187.921 8.55037 189.55 8.9271 191.016 9.68058C192.514 10.4341 193.688 11.4496 194.535 12.7272V0H202.891V36.3637H194.535V32.4324C193.752 33.7428 192.629 34.7911 191.162 35.5774C189.729 36.3637 188.052 36.7568 186.129 36.7568C183.882 36.7568 181.845 36.1835 180.02 35.0369C178.197 33.8575 176.746 32.2031 175.671 30.0737C174.629 27.9116 174.107 25.4218 174.107 22.6044ZM194.535 22.6535C194.535 20.5569 193.948 18.9025 192.776 17.6904C191.635 16.4783 190.234 15.8722 188.573 15.8722C186.911 15.8722 185.494 16.4783 184.321 17.6904C183.18 18.8697 182.61 20.5078 182.61 22.6044C182.61 24.7011 183.18 26.3718 184.321 27.6168C185.494 28.8289 186.911 29.4349 188.573 29.4349C190.234 29.4349 191.635 28.8289 192.776 27.6168C193.948 26.4045 194.535 24.7502 194.535 22.6535Z" fill="#1E1E1E"/>
</g>
<defs>
<linearGradient id="paint0_linear_702_5456" x1="44.3911" y1="61.0131" x2="12.254" y2="-16.0535" gradientUnits="userSpaceOnUse">
<stop stop-color="#573FDD"/>
<stop offset="1" stop-color="#7E46DC"/>
</linearGradient>
<clipPath id="clip0_702_5456">
<rect width="218" height="40" fill="white"/>
</clipPath>
</defs>
</svg>
